<svg id="visual" viewBox="0 0 1960 1080" width="1960" height="1080" xmlns="http://www.w3.org/2000/svg" xmlns:xlink="http://www.w3.org/1999/xlink" version="1.1"><rect x="0" y="0" width="1960" height="1080" fill="#001220"></rect><path d="M0 653L46.7 657.7C93.3 662.3 186.7 671.7 280 690.2C373.3 708.7 466.7 736.3 560 741C653.3 745.7 746.7 727.3 840 712C933.3 696.7 1026.7 684.3 1120 684.8C1213.3 685.3 1306.7 698.7 1400 695.5C1493.3 692.3 1586.7 672.7 1680 675.5C1773.3 678.3 1866.7 703.7 1913.3 716.3L1960 729L1960 1081L1913.3 1081C1866.7 1081 1773.3 1081 1680 1081C1586.7 1081 1493.3 1081 1400 1081C1306.7 1081 1213.3 1081 1120 1081C1026.7 1081 933.3 1081 840 1081C746.7 1081 653.3 1081 560 1081C466.7 1081 373.3 1081 280 1081C186.7 1081 93.3 1081 46.7 1081L0 1081Z" fill="#fa7268"></path><path d="M0 728L46.7 744C93.3 760 186.7 792 280 809C373.3 826 466.7 828 560 825.5C653.3 823 746.7 816 840 815.7C933.3 815.3 1026.7 821.7 1120 822.5C1213.3 823.3 1306.7 818.7 1400 820.3C1493.3 822 1586.7 830 1680 828.3C1773.3 826.7 1866.7 815.3 1913.3 809.7L1960 804L1960 1081L1913.3 1081C1866.7 1081 1773.3 1081 1680 1081C1586.7 1081 1493.3 1081 1400 1081C1306.7 1081 1213.3 1081 1120 1081C1026.7 1081 933.3 1081 840 1081C746.7 1081 653.3 1081 560 1081C466.7 1081 373.3 1081 280 1081C186.7 1081 93.3 1081 46.7 1081L0 1081Z" fill="#ef5f67"></path><path d="M0 905L46.7 907.3C93.3 909.7 186.7 914.3 280 898.8C373.3 883.3 466.7 847.7 560 825.7C653.3 803.7 746.7 795.3 840 807.5C933.3 819.7 1026.7 852.3 1120 866.7C1213.3 881 1306.7 877 1400 878.7C1493.3 880.3 1586.7 887.7 1680 888.2C1773.3 888.7 1866.7 882.3 1913.3 879.2L1960 876L1960 1081L1913.3 1081C1866.7 1081 1773.3 1081 1680 1081C1586.7 1081 1493.3 1081 1400 1081C1306.7 1081 1213.3 1081 1120 1081C1026.7 1081 933.3 1081 840 1081C746.7 1081 653.3 1081 560 1081C466.7 1081 373.3 1081 280 1081C186.7 1081 93.3 1081 46.7 1081L0 1081Z" fill="#e34c67"></path><path d="M0 959L46.7 952.8C93.3 946.7 186.7 934.3 280 919.2C373.3 904 466.7 886 560 895.2C653.3 904.3 746.7 940.7 840 953C933.3 965.3 1026.7 953.7 1120 937.3C1213.3 921 1306.7 900 1400 904C1493.3 908 1586.7 937 1680 942C1773.3 947 1866.7 928 1913.3 918.5L1960 909L1960 1081L1913.3 1081C1866.7 1081 1773.3 1081 1680 1081C1586.7 1081 1493.3 1081 1400 1081C1306.7 1081 1213.3 1081 1120 1081C1026.7 1081 933.3 1081 840 1081C746.7 1081 653.3 1081 560 1081C466.7 1081 373.3 1081 280 1081C186.7 1081 93.3 1081 46.7 1081L0 1081Z" fill="#d53867"></path><path d="M0 988L46.7 986C93.3 984 186.7 980 280 980.7C373.3 981.3 466.7 986.7 560 991.8C653.3 997 746.7 1002 840 1002.3C933.3 1002.7 1026.7 998.3 1120 1000.2C1213.3 1002 1306.7 1010 1400 1005C1493.3 1000 1586.7 982 1680 971.5C1773.3 961 1866.7 958 1913.3 956.5L1960 955L1960 1081L1913.3 1081C1866.7 1081 1773.3 1081 1680 1081C1586.7 1081 1493.3 1081 1400 1081C1306.7 1081 1213.3 1081 1120 1081C1026.7 1081 933.3 1081 840 1081C746.7 1081 653.3 1081 560 1081C466.7 1081 373.3 1081 280 1081C186.7 1081 93.3 1081 46.7 1081L0 1081Z" fill="#c62368"></path></svg>